HIERARCHY
ROOT hip
{
	OFFSET 0.000000 0.000000 0.000000 
	CHANNELS 6 Xposition Yposition Zposition Xrotation Zrotation Yrotation
	JOINT abdomen
	{
		OFFSET 0.000000 3.402643 0.000000 
		CHANNELS 3 Xrotation Zrotation Yrotation
		JOINT chest
		{
			OFFSET 0.000000 8.438565 -0.680529 
			CHANNELS 3 Xrotation Zrotation Yrotation
			JOINT neck
			{
				OFFSET 0.000000 10.207942 -0.272212 
				CHANNELS 3 Xrotation Zrotation Yrotation
				JOINT head
				{
					OFFSET 0.000000 3.130431 0.000000 
					CHANNELS 3 Xrotation Zrotation Yrotation
					End Site
					{
						OFFSET 0.000000 3.130435 0.000000 
					}
				}
			}
			JOINT lCollar
			{
				OFFSET 3.470700 6.669187 -0.816635 
				CHANNELS 3 Yrotation Zrotation Xrotation
				JOINT lShldr
				{
					OFFSET 3.198488 0.000000 0.000000 
					CHANNELS 3 Zrotation Yrotation Xrotation
					JOINT lForeArm
					{
						OFFSET 10.139888 0.000000 0.000000 
						CHANNELS 3 Yrotation Zrotation Xrotation
						JOINT lHand
						{
							OFFSET 8.370511 0.000000 0.000000 
							CHANNELS 3 Zrotation Yrotation Xrotation
							End Site
							{
								OFFSET 4.083176 0.000000 0.000000 
							}
						}
					}
				}
			}
			JOINT rCollar
			{
				OFFSET -3.470700 6.669187 -0.816635 
				CHANNELS 3 Yrotation Zrotation Xrotation
				JOINT rShldr
				{
					OFFSET -3.198488 0.000000 0.000000 
					CHANNELS 3 Zrotation Yrotation Xrotation
					JOINT rForeArm
					{
						OFFSET -10.139888 0.000000 0.000000 
						CHANNELS 3 Yrotation Zrotation Xrotation
						JOINT rHand
						{
							OFFSET -8.370511 0.000000 0.000000 
							CHANNELS 3 Zrotation Yrotation Xrotation
							End Site
							{
								OFFSET -4.083176 0.000000 0.000000 
							}
						}
					}
				}
			}
		}
	}
	JOINT lThigh
	{
		OFFSET 5.308129 -1.633274 1.361059 
		CHANNELS 3 Xrotation Zrotation Yrotation
		JOINT lShin
		{
			OFFSET -2.041588 -20.007561 0.000000 
			CHANNELS 3 Xrotation Zrotation Yrotation
			JOINT lFoot
			{
				OFFSET 0.000000 -19.190928 -1.224953 
				CHANNELS 3 Xrotation Yrotation Zrotation
				End Site
				{
					OFFSET 0.000000 -2.449906 4.627600 
				}
			}
		}
	}
	JOINT rThigh
	{
		OFFSET -5.308129 -1.633274 1.361059 
		CHANNELS 3 Xrotation Zrotation Yrotation
		JOINT rShin
		{
			OFFSET 2.041588 -20.007561 0.000000 
			CHANNELS 3 Xrotation Zrotation Yrotation
			JOINT rFoot
			{
				OFFSET 0.000000 -19.190928 -1.224953 
				CHANNELS 3 Xrotation Yrotation Zrotation
				End Site
				{
					OFFSET 0.000000 -2.449906 4.627600 
				}
			}
		}
	}
}
MOTION
Frames: 17
Frame Time: 0.033333
-1.030849 53.180508 -6.421595 0.481482 -0.175650 2.216786 0.000000 0.000000 0.000000 -2.020469 -0.097651 -0.595719 5.464522 -0.429415 -2.041105 7.841274 -1.259437 -1.308922 -1.402085 9.299571 -1.237385 -5.894812 0.565947 -7.517906 0.264248 -10.562509 8.007560 3.225405 -3.472054 -3.592824 0.876292 -8.066851 -1.202748 8.232577 -15.218411 4.201718 -0.118297 4.335812 5.699791 -0.410277 12.027871 -3.342403 7.454451 11.751539 9.313732 -0.821274 -1.645687 0.238899 -5.194811 0.473025 -10.515366 4.310977 -6.994584 -4.936575 11.061864 4.128636 1.875865 -11.204672 -0.276066 2.976472 
-1.032612 53.194077 -6.411185 0.450258 -0.224440 2.226546 0.000000 0.000000 0.000000 -1.952546 -0.058591 -0.566416 5.562691 -0.468483 -1.933689 7.827716 -1.093465 -1.308915 -1.334957 9.306085 -1.168407 -5.946475 0.397883 -7.737625 0.230100 -10.476074 7.398777 3.305279 -3.329729 -3.599897 0.938312 -7.891008 -1.132348 8.150052 -15.165006 4.060090 -0.123211 4.296699 5.816649 -0.415260 11.978629 -3.333099 7.536483 11.794206 9.361588 -0.868326 -1.643319 0.241078 -5.172934 0.456547 -10.479279 4.521084 -6.943185 -4.958518 10.775429 4.195923 1.869646 -11.068075 -0.258752 2.940597 
-1.038029 53.183010 -6.395894 0.530100 -0.175641 2.285146 0.000000 0.000000 0.000000 -2.001038 -0.097652 -0.537125 5.639645 -0.429438 -1.953217 7.764205 -1.366862 -1.250576 -1.295429 9.336118 -1.227811 -5.994702 0.300751 -7.846498 0.234073 -10.410089 7.575165 3.162508 -3.397316 -3.594396 0.949038 -7.989840 -1.182029 8.257948 -15.146578 4.055523 -0.109244 4.286634 5.513305 -0.516705 11.835876 -3.353812 7.351298 11.775181 9.292498 -0.605540 -1.623540 0.217320 -5.346990 0.487286 -10.609580 4.361056 -6.977359 -4.963860 10.963769 4.167698 1.881367 -11.215313 -0.252761 2.923039 
-1.046962 53.183140 -6.380287 0.576153 -0.234171 2.392598 0.000000 0.000000 0.000000 -1.991488 -0.068356 -0.585949 5.561893 -0.468509 -1.836036 7.942852 -1.093510 -1.201512 -1.285747 9.481925 -1.208569 -6.087556 0.256484 -7.863365 0.228904 -10.418865 7.486967 2.999619 -3.310261 -3.570621 0.952980 -7.930935 -1.162695 8.175742 -15.163157 4.148957 -0.103685 4.345928 5.493823 -0.642971 11.809029 -3.370306 7.272012 11.861621 9.321190 -0.567967 -1.636905 0.225390 -5.340948 0.490806 -10.639722 4.380325 -6.877970 -4.923692 10.939466 4.173708 1.919324 -11.198223 -0.277845 2.899599 
-1.053618 53.184406 -6.376660 0.595863 -0.224404 2.451153 0.000000 0.000000 0.000000 -1.971911 -0.068355 -0.625011 5.523345 -0.497805 -1.787212 8.099084 -1.210721 -1.084361 -1.377118 9.395646 -1.197287 -5.922901 0.437312 -7.770582 0.226795 -10.422075 7.636303 2.760365 -3.393123 -3.569279 0.954737 -7.911245 -1.153025 8.166297 -15.113418 3.977451 -0.112461 4.277508 5.699061 -0.485022 11.974644 -3.347284 7.303932 11.855251 9.331007 -0.722705 -1.595558 0.232534 -5.253659 0.459753 -10.565444 4.398840 -6.866931 -4.942228 10.886554 4.175531 1.915113 -11.179554 -0.272336 2.869661 
-1.047451 53.183273 -6.384189 0.615775 -0.214646 2.460920 0.000000 0.000000 0.000000 -1.903814 -0.048826 -0.566414 5.663917 -0.624699 -1.777451 7.737342 -1.064216 -1.211273 -1.300155 9.411817 -1.128312 -5.951282 0.351988 -7.791993 0.212819 -10.392179 7.525366 2.735333 -3.463108 -3.571140 0.773024 -8.131323 -1.093687 8.402377 -14.892785 3.927825 -0.120663 4.298234 6.042087 -0.439925 11.889182 -3.339573 7.204816 11.853994 9.287662 -0.538796 -1.617480 0.174569 -5.338403 0.522331 -10.626039 4.315818 -6.913869 -4.927593 10.998574 4.185594 1.895395 -11.229020 -0.279329 2.866582 
-1.038147 53.186275 -6.382379 0.804630 -0.136591 2.480462 0.000000 0.000000 0.000000 -2.010540 -0.117182 -0.576191 5.676266 -0.732092 -1.718984 7.545702 -0.751774 -1.250149 -1.336722 9.307425 -1.218154 -5.873906 0.489007 -7.912075 0.229529 -10.304457 7.682576 2.708483 -3.514080 -3.561762 0.747848 -8.268989 -1.183446 8.463440 -14.832540 4.058373 -0.124655 4.414291 5.807638 -0.606936 11.840466 -3.373824 7.065248 11.752471 9.209912 -0.713760 -1.664985 0.194648 -5.229699 0.510235 -10.500475 4.118991 -7.027856 -5.000384 11.067685 4.222726 1.922894 -11.248526 -0.261390 2.843057 
-1.038895 53.175716 -6.369808 0.787152 -0.087806 2.519528 0.000000 0.000000 0.000000 -1.990258 -0.185537 -0.595732 5.791805 -0.644211 -1.806856 7.366107 -1.083754 -1.181983 -1.375569 9.318007 -1.218135 -5.902742 0.618376 -7.964916 0.226925 -10.266767 7.751566 2.723134 -3.424766 -3.568250 0.878020 -8.251759 -1.164080 8.357971 -14.987831 3.990976 -0.120826 4.344796 5.591940 -0.409112 12.008374 -3.340471 7.075409 11.703677 9.183920 -0.605958 -1.644234 0.217812 -5.321648 0.487002 -10.619547 4.108248 -7.066318 -5.004517 11.216562 4.215941 1.923625 -11.365529 -0.273099 2.870682 
-1.031853 53.180626 -6.355434 0.813183 0.058534 2.578134 0.000000 0.000000 0.000000 -1.988885 -0.302716 -0.625043 5.821651 -0.644193 -1.855681 7.399194 -1.357170 -1.103900 -1.279713 9.159965 -1.226242 -5.834610 0.631819 -7.925313 0.244608 -10.282736 8.169012 3.195500 -3.464156 -3.590540 0.875593 -8.300727 -1.173741 8.329392 -14.950876 3.850829 -0.124124 4.295975 5.699061 -0.318698 12.170033 -3.321110 7.085426 11.557704 9.075660 -0.722384 -1.691813 0.234580 -5.281477 0.468290 -10.435162 4.087187 -7.249190 -5.102534 11.264823 4.225640 1.937804 -11.441432 -0.242756 2.886343 
-1.030337 53.181507 -6.340410 0.731520 -0.019510 2.646484 0.000000 0.000000 0.000000 -1.921290 -0.244127 -0.595739 5.984691 -0.546582 -1.875101 7.058902 -1.435281 -1.103903 -1.327798 9.334729 -1.149147 -5.922875 0.588380 -7.746521 0.247191 -10.447585 7.567339 3.238745 -3.206881 -3.589200 0.806026 -8.298322 -1.114382 8.344452 -14.995090 3.924895 -0.133196 4.334689 5.767956 -0.505538 11.983252 -3.351301 7.181646 11.625109 9.177543 -0.791540 -1.703177 0.248553 -5.202268 0.480530 -10.416858 4.265981 -7.147174 -5.090591 11.115544 4.234404 1.927476 -11.374558 -0.269111 2.883605 
-1.022672 53.182514 -6.339206 0.779446 -0.039021 2.646484 0.000000 0.000000 0.000000 -1.921931 -0.195303 -0.556671 5.944851 -0.536837 -1.826275 7.129093 -1.571989 -1.074886 -1.298504 9.334150 -1.149161 -5.882741 0.607659 -7.610125 0.228923 -10.486841 7.438957 3.119782 -3.341361 -3.589103 0.746481 -8.346013 -1.114394 8.437281 -14.999710 3.777554 -0.126972 4.237421 5.816654 -0.507328 11.846197 -3.351775 7.117440 11.639030 9.126772 -0.704587 -1.637044 0.193474 -5.280912 0.524804 -10.506388 4.238080 -7.118938 -5.048186 11.105859 4.205064 1.914697 -11.336369 -0.292729 2.893254 
-1.027566 53.190567 -6.331999 0.789638 -0.029264 2.695312 0.000000 0.000000 0.000000 -1.922031 -0.195304 -0.527374 5.995435 -0.585634 -1.845807 7.013837 -1.659859 -1.084661 -1.448735 9.151536 -1.147499 -5.661482 0.793179 -7.632405 0.247162 -10.459391 7.666899 2.766466 -3.500702 -3.564916 0.754037 -8.385385 -1.124048 8.438238 -15.060849 3.783802 -0.124078 4.237506 5.776976 -0.374074 11.756041 -3.335805 7.220567 11.634122 9.269413 -1.114640 -1.793944 0.258388 -4.972920 0.426450 -10.188825 4.304117 -7.096369 -5.006149 10.973864 4.167825 1.891850 -11.275541 -0.265594 2.906254 
-1.018512 53.188068 -6.327341 0.847719 -0.039017 2.773437 0.000000 0.000000 0.000000 -1.941493 -0.185538 -0.576200 5.887820 -0.595410 -1.796981 7.224697 -1.503656 -1.045331 -1.416297 9.151439 -1.166791 -5.672996 0.797655 -7.672347 0.235882 -10.457556 7.498345 2.609619 -3.500665 -3.554954 0.724674 -8.316593 -1.133727 8.263539 -15.039040 4.119200 -0.112127 4.394438 5.543249 -0.502660 11.768206 -3.352038 7.135666 11.648076 9.218114 -1.074179 -1.761592 0.255071 -4.980028 0.450309 -10.210731 4.276319 -7.089012 -5.005413 10.973599 4.167738 1.901585 -11.315132 -0.265592 2.895707 
-1.013855 53.197998 -6.320776 0.848172 -0.029262 2.812500 0.000000 0.000000 0.000000 -1.911756 -0.214831 -0.615267 5.929523 -0.683261 -1.787332 6.947359 -1.210709 -1.113652 -1.408885 9.189817 -1.147522 -5.732563 0.816901 -7.597466 0.237451 -10.484603 7.379582 2.817121 -3.360264 -3.571410 0.679476 -8.276349 -1.114418 8.286189 -14.965261 4.021246 -0.104815 4.365388 5.484084 -0.390922 12.038758 -3.338279 7.186452 11.620135 9.235701 -1.170756 -1.780662 0.270575 -4.955756 0.439189 -10.108685 4.362768 -7.086974 -5.004748 10.837714 4.168000 1.891409 -11.237102 -0.280205 2.909566 
-1.011591 53.201401 -6.318107 0.896017 -0.048768 2.841796 0.000000 0.000000 0.000000 -1.941329 -0.195302 -0.595733 5.891984 -0.732066 -1.787338 7.084119 -1.161870 -1.162464 -1.484446 9.162577 -1.166755 -5.773268 0.862784 -7.779574 0.220044 -10.332720 7.554192 2.624990 -3.274870 -3.546079 0.673046 -8.384097 -1.144814 8.385350 -14.967077 4.083316 -0.107158 4.413370 5.327539 -0.151232 11.974261 -3.307184 7.193248 11.627277 9.247344 -1.320690 -1.794863 0.279234 -4.830897 0.421528 -10.027629 4.353776 -7.059399 -4.972218 10.737206 4.127939 1.900587 -11.177621 -0.276256 2.921918 
-1.009194 53.207939 -6.315091 0.992681 -0.068274 2.861326 0.000000 0.000000 0.000000 -2.009755 -0.195303 -0.576202 5.854613 -0.761324 -1.845930 7.124468 -1.113004 -1.279625 -1.483280 9.232640 -1.227698 -5.890674 0.837900 -7.868741 0.226925 -10.266767 7.751566 2.830614 -3.271902 -3.558219 0.683731 -8.394951 -1.202771 8.550619 -14.974802 3.791189 -0.124606 4.267429 5.875082 -0.134359 11.857837 -3.304292 7.074432 11.614784 9.192114 -1.271570 -1.746175 0.275186 -4.880760 0.423817 -10.017504 4.373223 -7.038550 -4.940270 10.514387 4.138104 1.855436 -11.088524 -0.258121 2.919371 
-0.999504 53.204777 -6.301928 0.893613 -0.097537 2.832027 0.000000 0.000000 0.000000 -1.941652 -0.175773 -0.556668 5.921325 -0.702752 -1.865453 7.166587 -1.259456 -1.269869 -1.483439 9.211395 -1.168318 -5.887457 0.822656 -7.827799 0.226875 -10.285101 7.682573 2.944062 -3.518964 -3.577027 0.752736 -8.307531 -1.143382 8.478944 -14.983071 3.768221 -0.131305 4.247740 5.992673 -0.255319 11.909591 -3.320366 7.161566 11.633950 9.227674 -1.223042 -1.745850 0.253039 -4.908408 0.440105 -10.075006 4.457140 -7.013700 -4.957210 10.552373 4.147602 1.868778 -11.089309 -0.279115 2.930708 
